PathFileType	4	(X/Y/Z)	Kaydara																																																																																																																									
DataRate	CameraRate	NumFrames	NumMarkers	Units	OrigDataRate	OrigDataStartFrame	OrigNumFrames																																																																																																																					
30	30	6	41	mm	30	112	147																																																																																																																					
Frame#	Time	PAIB_LFHD			PAIB_RFHD			PAIB_LBHD			PAIB_RBHD			PAIB_LFTShould			PAIB_RFTShould			PAIB_LRRShould			PAIB_RRRShould			PAIB_T10			PAIB_STRN			PAIB_TRUN			PAIB_LSHO			PAIB_LUPA			PAIB_LELB			PAIB_LFRM			PAIB_LWRA			PAIB_LWRB			PAIB_LFIN			PAIB_RSHO			PAIB_RUPA			PAIB_RELB			PAIB_RFRM			PAIB_RWRA			PAIB_RWRB			PAIB_RFIN			PAIB_LFWT			PAIB_RFWT			PAIB_LBWT			PAIB_RBWT			PAIB_LTHI			PAIB_LKNE			PAIB_LSHN			PAIB_LANK			PAIB_LHEE			PAIB_LTOE			PAIB_RTHI			PAIB_RKNE			PAIB_RSHN			PAIB_RANK			PAIB_RHEE			PAIB_RTOE		
		X1	Y1	Z1	X2	Y2	Z2	X3	Y3	Z3	X4	Y4	Z4	X5	Y5	Z5	X6	Y6	Z6	X7	Y7	Z7	X8	Y8	Z8	X9	Y9	Z9	X10	Y10	Z10	X11	Y11	Z11	X12	Y12	Z12	X13	Y13	Z13	X14	Y14	Z14	X15	Y15	Z15	X16	Y16	Z16	X17	Y17	Z17	X18	Y18	Z18	X19	Y19	Z19	X20	Y20	Z20	X21	Y21	Z21	X22	Y22	Z22	X23	Y23	Z23	X24	Y24	Z24	X25	Y25	Z25	X26	Y26	Z26	X27	Y27	Z27	X28	Y28	Z28	X29	Y29	Z29	X30	Y30	Z30	X31	Y31	Z31	X32	Y32	Z32	X33	Y33	Z33	X34	Y34	Z34	X35	Y35	Z35	X36	Y36	Z36	X37	Y37	Z37	X38	Y38	Z38	X39	Y39	Z39	X40	Y40	Z40	X41	Y41	Z41
																																																																																																																												
74	3.703	229.20303	1649.40567	-488.50353	44.12821	1649.35608	-491.83796	238.64973	1609.57962	-611.32725	36.06115	1622.34207	-604.10927	205.31443	1377.51984	-487.90859	82.94243	1374.1774	-481.14086	203.87104	1444.3866	-631.20178	50.71558	1442.08481	-613.39722	117.88827	1287.87628	-710.01389	153.84542	1310.37949	-449.45992	152.55527	1207.9451	-429.78718	329.03461	1389.10278	-577.14119	382.81746	1168.0426	-629.12621	391.16707	1093.7326	-685.924	420.77015	975.37361	-669.02489	383.24448	845.0264	-591.69392	407.47856	840.21393	-668.70514	431.92284	794.4828	-616.34075	-44.94073	1380.26749	-525.53757	-118.38857	1212.96883	-515.25387	-147.62469	1100.49118	-483.35121	-146.15165	993.37517	-386.75556	-57.95505	955.6015	-262.89869	-130.9936	915.77789	-285.0741	-111.17422	923.54187	-213.62183	232.73109	924.3782	-475.07401	-1.3171	924.51141	-479.10149	185.74936	965.1825	-693.9827	40.51374	980.2877	-693.85536	231.08051	673.26759	-608.15075	264.87734	493.66299	-406.38466	239.22953	322.59892	-305.95821	238.72	117.37855	-297.89721	178.45804	89.82937	-333.81737	236.46235	135.99218	-121.22803	-16.11575	709.97681	-725.4084	-10.33133	456.3591	-695.61417	59.54626	274.48359	-720.55656	38.26607	94.34896	-842.82104	97.89418	114.75164	-899.41437	64.50161	60.81853	-685.43015
75	3.737	234.2844	1643.29056	-444.12109	49.22552	1643.46802	-447.67227	243.89803	1603.17535	-566.86241	41.25524	1616.17065	-559.88235	209.83431	1370.04211	-443.34606	87.37164	1367.74872	-436.03504	208.28733	1437.6712	-586.2384	54.95672	1436.33499	-568.17806	121.20327	1281.86935	-665.09605	158.00707	1303.06854	-404.94728	156.00417	1200.72784	-385.48363	333.2761	1380.68909	-532.92103	385.29789	1158.65875	-584.0168	393.47385	1084.67522	-640.93323	423.71799	966.80923	-626.84776	387.5457	834.31053	-552.64282	411.67648	831.71349	-629.7958	436.4764	784.79156	-579.01379	-40.33679	1373.96896	-479.83574	-114.1115	1206.85478	-469.7773	-143.54191	1094.52553	-437.57347	-142.09538	987.24342	-341.34144	-53.97596	949.02779	-217.93562	-127.01694	909.35173	-239.90061	-107.27098	917.21985	-168.50363	236.02749	918.49266	-429.32259	1.84465	917.33994	-434.03419	191.5967	959.12582	-649.40674	45.79974	973.2373	-648.96957	237.8931	667.49428	-561.04958	267.11908	488.46554	-358.53992	241.36971	317.78078	-260.67089	238.20072	112.69757	-250.43776	177.60746	85.40318	-286.07178	231.40692	132.42832	-72.45297	-8.89125	707.50916	-684.22249	-8.19201	453.79799	-664.97154	60.62394	272.29553	-702.22733	37.4156	102.48264	-838.21686	96.87658	127.45149	-892.66678	64.63615	60.68161	-685.09262
76	3.77	239.92077	1639.55841	-399.1301	55.01424	1640.05219	-402.69646	249.47865	1599.1243	-521.78185	46.8773	1612.4913	-514.91783	215.09079	1366.41022	-398.05435	92.75091	1364.56299	-390.1239	213.12927	1433.26935	-541.40331	59.88979	1432.88544	-522.54791	124.74401	1277.60048	-619.19472	163.22029	1299.91989	-359.11976	161.24702	1197.75192	-338.69179	338.37242	1375.95108	-488.34496	387.56348	1152.22534	-535.8363	395.68283	1078.09525	-592.62886	426.56822	961.02821	-580.60028	391.67217	826.66245	-508.21877	415.92812	826.00166	-586.15467	441.38588	778.21159	-536.57795	-34.88237	1370.62561	-433.22487	-108.55623	1203.14804	-424.53686	-138.33102	1090.61302	-394.64729	-137.92338	981.19713	-301.05053	-50.40572	939.18747	-178.51168	-123.75995	900.73135	-201.60896	-103.99302	906.55952	-130.06172	243.22954	917.59125	-381.39877	8.89499	912.30453	-384.52171	196.30556	956.16684	-600.29259	51.12304	968.79631	-600.03986	242.67057	666.5361	-512.19971	268.82776	488.22681	-310.27546	237.90043	304.11869	-226.0829	230.51928	99.53943	-236.85793	172.71215	77.58749	-274.0527	222.93283	99.76569	-59.64427	-1.567	705.42465	-638.15472	-7.35322	452.96951	-626.48193	58.83983	273.01464	-678.26233	32.29541	116.30909	-829.60915	91.45933	146.66736	-881.92101	63.8045	60.43357	-684.33121
77	3.803	245.63139	1641.48361	-353.64162	60.59756	1642.08237	-357.53994	255.37878	1600.92377	-476.18687	52.75425	1614.38629	-469.68018	221.47799	1368.02002	-351.24882	98.67343	1366.39725	-343.28239	219.22247	1433.21869	-495.14454	65.67553	1433.7236	-476.69281	130.77809	1276.84273	-570.70732	169.26165	1302.12997	-311.51516	167.31489	1200.27611	-289.92414	344.58897	1375.54276	-442.50595	391.38783	1149.64355	-486.0936	398.42617	1074.90089	-541.72794	429.40716	958.29697	-530.8363	395.55054	823.02574	-459.51881	419.26292	823.50052	-537.64156	445.54901	775.45235	-488.90369	-29.44468	1370.92529	-387.05692	-103.04066	1202.28729	-381.63174	-131.92913	1088.96942	-354.75636	-133.60415	976.06812	-266.36566	-47.8989	927.51427	-145.15198	-121.4153	891.02585	-170.73803	-101.94033	892.90245	-98.91543	251.81646	920.86922	-332.14214	17.40322	910.82741	-333.01769	202.8484	958.0172	-551.05976	57.01778	968.46619	-549.00829	244.49421	669.20815	-462.87067	272.26357	489.54094	-266.55405	235.68712	303.26725	-186.58516	232.5806	99.37194	-211.28105	174.23426	81.70634	-253.41639	218.2906	79.0734	-30.41055	4.49201	702.90527	-584.93755	-7.19449	451.34655	-572.69146	55.81722	276.58022	-644.19716	25.07213	138.48847	-813.48984	84.50953	175.529	-861.36795	62.1723	59.87218	-683.04207
78	3.837	251.21727	1645.99991	-307.89799	66.43485	1646.47125	-312.29906	261.43621	1605.43808	-430.39394	58.67127	1618.78922	-424.51221	227.36876	1373.77945	-304.76536	105.17615	1371.99844	-296.56582	225.14769	1437.06299	-448.95741	71.73309	1438.0925	-430.81852	136.75526	1280.23453	-523.70281	175.5957	1308.09647	-264.26994	173.94709	1206.58096	-241.64591	350.93185	1380.14404	-395.34184	395.19218	1152.31659	-433.06725	401.71387	1076.09474	-486.9566	432.41455	960.18547	-476.0215	398.89545	824.52263	-406.11576	422.42645	825.38551	-483.46684	448.6422	776.8779	-435.13756	-23.73797	1375.87433	-340.49599	-96.37804	1205.65544	-341.2413	-124.46422	1091.15273	-319.34095	-129.0694	973.31116	-238.36697	-46.6324	915.68878	-118.73169	-120.03165	882.04941	-148.14363	-102.01594	878.52516	-76.02066	261.29911	929.50958	-284.41877	27.5768	913.66394	-281.6559	207.26532	963.84544	-503.01517	61.78177	969.54407	-498.94283	252.90197	676.28021	-418.56701	280.229	496.24729	-223.91226	241.17346	299.69255	-157.70468	235.05941	99.33673	-200.65542	177.8948	86.65241	-246.44003	218.48688	63.0497	-24.87018	9.4878	695.25085	-523.8216	-11.3693	447.17697	-499.1296	48.62556	282.79947	-593.80547	17.37181	172.80254	-785.72212	80.32481	217.54301	-821.61758	62.12798	59.22966	-688.85071
79	3.87	256.6128	1650.65323	-262.46847	71.7054	1651.05713	-267.30947	267.16888	1610.47287	-385.01865	64.30348	1623.74435	-379.67281	232.51112	1380.0676	-259.36398	110.74926	1377.91092	-251.76271	231.1989	1442.12692	-403.72028	77.74137	1443.24539	-386.65268	143.10286	1284.69574	-478.33508	181.09669	1314.28131	-218.72253	179.95279	1212.88254	-195.53762	356.9355	1386.43173	-347.83268	399.34471	1157.19528	-378.00098	406.67519	1079.69505	-431.46782	436.45824	963.95882	-417.77504	401.2878	829.65019	-345.6028	425.72826	829.06845	-422.63676	450.68275	780.79758	-373.63297	-18.6083	1382.06436	-295.95795	-90.58988	1210.34264	-302.64029	-117.34508	1094.47098	-287.10308	-125.00831	971.47385	-214.85775	-46.61931	903.94135	-97.53532	-119.18036	873.58376	-131.69263	-103.0984	863.51952	-59.64775	270.54188	937.46284	-238.11085	37.13902	917.17308	-235.41592	211.97344	968.32787	-457.48421	66.37996	969.7184	-452.62608	266.21176	681.62384	-375.90248	280.95791	498.06396	-181.01665	240.10853	297.20526	-136.39999	234.59141	99.57827	-193.41837	180.25631	89.31994	-243.26054	211.06281	58.41957	-21.98472	13.3082	678.94936	-456.69827	-10.88675	437.7903	-412.37423	45.99853	290.25839	-527.58034	11.75484	214.25661	-731.53305	71.6945	263.64521	-760.57465	60.48079	66.43958	-666.58478
